<svg width="250" height="250" viewBox="0 0 250 250" fill="none" xmlns="http://www.w3.org/2000/svg">
<rect width="250" height="250" fill="#E9E9E9"/>
<path d="M141.774 68.6C138.441 68.6 135.241 69.1333 132.174 70.2C129.241 71.2667 126.641 72.8667 124.374 75C122.241 77 120.508 79.5333 119.174 82.6C117.841 85.6667 117.174 89.2667 117.174 93.4C117.174 101.667 119.508 107.867 124.174 112C128.974 116.133 134.774 118.2 141.574 118.2C145.574 118.2 149.041 117.733 151.974 116.8C154.908 115.867 157.508 114.867 159.774 113.8C162.441 115.667 164.441 117.733 165.774 120C167.108 122.133 167.774 124.733 167.774 127.8C167.774 133.267 165.174 137.533 159.974 140.6C154.774 143.533 147.574 145 138.374 145C129.974 145 122.374 143.8 115.574 141.4C108.774 138.867 102.908 135.4 97.9742 131C93.1742 126.467 89.4409 121.067 86.7742 114.8C84.1076 108.533 82.7742 101.6 82.7742 94C82.7742 85.2 84.1742 77.5333 86.9742 71C89.9076 64.3333 93.8409 58.8667 98.7742 54.6C103.708 50.3333 109.374 47.1333 115.774 45C122.308 42.8667 129.174 41.8 136.374 41.8C145.974 41.8 153.374 43.5333 158.574 47C163.774 50.4667 166.374 54.9333 166.374 60.4C166.374 62.9333 165.774 65.3333 164.574 67.6C163.374 69.7333 161.974 71.6 160.374 73.2C158.108 72.1333 155.374 71.1333 152.174 70.2C148.974 69.1333 145.508 68.6 141.774 68.6Z" fill="#03C988"/>
<path d="M128.08 93.66C128.08 89.74 129.293 86.4733 131.72 83.86C134.147 81.2467 137.46 79.94 141.66 79.94C145.86 79.94 149.173 81.2467 151.6 83.86C154.027 86.4733 155.24 89.74 155.24 93.66C155.24 97.58 154.027 100.847 151.6 103.46C149.173 106.073 145.86 107.38 141.66 107.38C137.46 107.38 134.147 106.073 131.72 103.46C129.293 100.847 128.08 97.58 128.08 93.66Z" fill="#00337C"/>
</svg>
