<svg width="45" height="148" viewBox="0 0 45 148" fill="none" xmlns="http://www.w3.org/2000/svg">
<path d="M22.1024 70.0829L39.2044 87.1598L44.23 82.1342L22.1024 60.0067L0 82.1342L5.02559 87.1598L22.1024 70.0829Z" fill="#00337C"/>
<path d="M22.1024 99.9113L39.2044 116.988L44.23 111.963L22.1024 89.8352L0 111.963L5.02559 116.988L22.1024 99.9113Z" fill="#00337C"/>
<path d="M22.1024 130.09L39.2044 147.192L44.23 142.141L22.1024 120.039L0 142.141L5.02559 147.192L22.1024 130.09Z" fill="#00337C"/>
<path d="M22.1024 10.0762L39.2044 27.1531L44.23 22.1275L22.1024 0L0 22.1275L5.02559 27.1531L22.1024 10.0762Z" fill="#00337C"/>
<path d="M22.1024 39.9046L39.2044 56.9815L44.23 51.956L22.1024 29.8285L0 51.956L5.02559 56.9815L22.1024 39.9046Z" fill="#00337C"/>
</svg>
