<svg width="260" height="170" viewBox="0 0 260 170" fill="none" xmlns="http://www.w3.org/2000/svg">
<mask id="mask0_183_67" style="mask-type:alpha" maskUnits="userSpaceOnUse" x="0" y="0" width="260" height="170">
<rect width="260" height="170" fill="#D9D9D9"/>
</mask>
<g mask="url(#mask0_183_67)">
<path d="M88.9999 137C-3.0858 137 -78 62.0857 -78 -30C-78 -122.086 -3.0858 -197 88.9999 -197C181.086 -197 256 -122.086 256 -30C255.982 62.0857 181.068 137 88.9999 137ZM88.9999 -191.388C0.0107007 -191.388 -72.3876 -118.989 -72.3876 -30C-72.3876 58.9892 0.0107007 131.388 88.9999 131.388C177.989 131.388 250.388 58.9892 250.388 -30C250.388 -118.989 177.989 -191.388 88.9999 -191.388Z" fill="white"/>
<path d="M89 118.755C6.97786 118.755 -59.7552 52.0221 -59.7552 -30C-59.7552 -112.022 6.97786 -178.755 89 -178.755C171.022 -178.755 237.755 -112.022 237.755 -30C237.738 52.0221 171.004 118.755 89 118.755ZM89 -173.143C10.0744 -173.143 -54.1428 -108.926 -54.1428 -30C-54.1428 48.9256 10.0744 113.143 89 113.143C167.926 113.143 232.143 48.9256 232.143 -30C232.143 -108.926 167.926 -173.143 89 -173.143Z" fill="white"/>
<path d="M89 100.511C17.0415 100.511 -41.5105 41.9585 -41.5105 -30C-41.5105 -101.958 17.0415 -160.51 89 -160.51C160.958 -160.51 219.511 -101.958 219.511 -30C219.493 41.9585 160.958 100.511 89 100.511ZM89 -154.898C20.1204 -154.898 -35.8981 -98.862 -35.8981 -30C-35.8981 38.8796 20.138 94.8981 89 94.8981C157.862 94.8981 213.898 38.862 213.898 -30C213.898 -98.862 157.862 -154.898 89 -154.898Z" fill="white"/>
<path d="M88.9999 82.2657C27.1051 82.2657 -23.2659 31.9124 -23.2659 -30.0001C-23.2659 -91.8949 27.0875 -142.266 88.9999 -142.266C150.895 -142.266 201.266 -91.9125 201.266 -30.0001C201.248 31.9124 150.895 82.2657 88.9999 82.2657ZM88.9999 -136.653C30.184 -136.653 -17.6535 -88.7984 -17.6535 -30.0001C-17.6535 28.8159 30.2016 76.6533 88.9999 76.6533C147.798 76.6533 195.653 28.7983 195.653 -30.0001C195.653 -88.7984 147.798 -136.653 88.9999 -136.653Z" fill="white"/>
<path d="M88.9999 64.021C37.1511 64.021 -5.02112 21.8488 -5.02112 -30.0001C-5.02112 -81.8489 37.1511 -124.021 88.9999 -124.021C140.849 -124.021 183.021 -81.8489 183.021 -30.0001C183.003 21.8488 140.831 64.021 88.9999 64.021ZM88.9999 -118.409C40.2476 -118.409 0.591296 -78.7524 0.591296 -30.0001C0.591296 18.7523 40.2476 58.4262 88.9999 58.4262C137.752 58.4262 177.409 18.7699 177.409 -30.0001C177.409 -78.7524 137.752 -118.409 88.9999 -118.409Z" fill="white"/>
<path d="M89 45.7763C47.2148 45.7763 13.2238 11.7851 13.2238 -30C13.2238 -71.7852 47.2148 -105.776 89 -105.776C130.785 -105.776 164.776 -71.7852 164.776 -30C164.776 11.7851 130.768 45.7763 89 45.7763ZM89 -100.164C50.3113 -100.164 18.8186 -68.6887 18.8186 -29.9824C18.8186 8.70624 50.2937 40.1991 89 40.1991C127.706 40.1991 159.182 8.72384 159.182 -29.9824C159.164 -68.6887 127.689 -100.164 89 -100.164Z" fill="white"/>
<path d="M237.743 133.069C250.15 107.035 239.103 75.8721 213.069 63.465C187.035 51.0579 155.872 62.1048 143.465 88.1389C131.058 114.173 142.105 145.336 168.139 157.743C194.173 170.15 225.336 159.103 237.743 133.069Z" fill="#8CE6C6"/>
</g>
</svg>
