<svg width="68" height="500" viewBox="0 0 68 500" fill="none" xmlns="http://www.w3.org/2000/svg">
<path d="M1 249.997L33.58 268.807L66.16 249.997V212.377L33.58 193.567L1 212.377V249.997Z" fill="#00337C"/>
<path d="M1 287.617L33.58 306.427L66.16 287.617V249.997L33.58 231.187L1 249.997V287.617Z" stroke="#1D262D" stroke-width="2" stroke-miterlimit="10"/>
<path d="M22.7001 322.727H17.3701V344.557H22.7001V322.727Z" fill="#13005A"/>
<path d="M36.2401 322.727H30.9101V344.557H36.2401V322.727Z" fill="#13005A"/>
<path d="M49.7801 322.727H44.4501V344.557H49.7801V322.727Z" fill="#13005A"/>
<path d="M22.7001 353.817H17.3701V375.647H22.7001V353.817Z" fill="#13005A"/>
<path d="M36.2401 353.817H30.9101V375.647H36.2401V353.817Z" fill="#13005A"/>
<path d="M36.2401 384.897H30.9101V406.727H36.2401V384.897Z" fill="#13005A"/>
<path d="M49.7801 384.897H44.4501V406.727H49.7801V384.897Z" fill="#13005A"/>
<path d="M22.7001 415.987H17.3701V437.817H22.7001V415.987Z" fill="#13005A"/>
<path d="M49.7801 415.987H44.4501V437.817H49.7801V415.987Z" fill="#13005A"/>
<path d="M22.7001 447.077H17.3701V468.907H22.7001V447.077Z" fill="#13005A"/>
<path d="M36.2401 447.077H30.9101V468.907H36.2401V447.077Z" fill="#13005A"/>
<path d="M22.7001 478.167H17.3701V499.997H22.7001V478.167Z" fill="#13005A"/>
<path d="M36.2401 478.167H30.9101V499.997H36.2401V478.167Z" fill="#13005A"/>
<path d="M49.7801 478.167H44.4501V499.997H49.7801V478.167Z" fill="#13005A"/>
<path d="M44.4584 177.268H49.7885V155.438H44.4584V177.268Z" fill="#13005A"/>
<path d="M30.9201 177.268H36.2501V155.438H30.9201L30.9201 177.268Z" fill="#13005A"/>
<path d="M17.3818 177.268H22.7118L22.7118 155.438H17.3818L17.3818 177.268Z" fill="#13005A"/>
<path d="M44.4584 146.182H49.7885V124.352H44.4584V146.182Z" fill="#13005A"/>
<path d="M30.9201 146.182H36.2501V124.352H30.9201L30.9201 146.182Z" fill="#13005A"/>
<path d="M30.9201 115.097H36.2501V93.2666H30.9201L30.9201 115.097Z" fill="#13005A"/>
<path d="M17.3818 115.097H22.7118L22.7118 93.2666H17.3818L17.3818 115.097Z" fill="#13005A"/>
<path d="M44.4584 84.001H49.7885V62.171H44.4584V84.001Z" fill="#13005A"/>
<path d="M17.3818 84.001H22.7118L22.7118 62.171H17.3818L17.3818 84.001Z" fill="#13005A"/>
<path d="M44.4584 52.9156H49.7885V31.0857H44.4584V52.9156Z" fill="#13005A"/>
<path d="M30.9201 52.9156H36.2501V31.0857H30.9201L30.9201 52.9156Z" fill="#13005A"/>
<path d="M44.4584 21.83H49.7885V-4.3869e-05H44.4584V21.83Z" fill="#13005A"/>
<path d="M30.9201 21.83H36.2501V-4.3869e-05H30.9201L30.9201 21.83Z" fill="#13005A"/>
<path d="M17.3818 21.83H22.7118L22.7118 -4.3869e-05H17.3818L17.3818 21.83Z" fill="#13005A"/>
</svg>
