<svg width="220" height="7" viewBox="0 0 220 7" fill="none" xmlns="http://www.w3.org/2000/svg">
<path d="M3.24202 6.48402C1.46143 6.48402 0 5.0394 0 3.24201C0 1.46142 1.44463 0 3.24202 0C5.03942 0 6.48405 1.44462 6.48405 3.24201C6.48405 5.0394 5.03942 6.48402 3.24202 6.48402Z" fill="#0B315E"/>
<path d="M33.7137 6.48402C31.9331 6.48402 30.4717 5.0394 30.4717 3.24201C30.4717 1.46142 31.9163 0 33.7137 0C35.5111 0 36.9557 1.44462 36.9557 3.24201C36.9557 5.0394 35.4943 6.48402 33.7137 6.48402Z" fill="#0B315E"/>
<path d="M64.1685 6.48402C62.3879 6.48402 60.9265 5.0394 60.9265 3.24201C60.9265 1.46142 62.3711 0 64.1685 0C65.9491 0 67.4106 1.44462 67.4106 3.24201C67.4106 5.0394 65.9659 6.48402 64.1685 6.48402Z" fill="#0B315E"/>
<path d="M94.6402 6.48402C92.8596 6.48402 91.3982 5.0394 91.3982 3.24201C91.3982 1.46142 92.8428 0 94.6402 0C96.4208 0 97.8822 1.44462 97.8822 3.24201C97.8822 5.0394 96.4208 6.48402 94.6402 6.48402Z" fill="#0B315E"/>
<path d="M125.112 6.48402C123.331 6.48402 121.87 5.0394 121.87 3.24201C121.87 1.46142 123.315 0 125.112 0C126.892 0 128.354 1.44462 128.354 3.24201C128.337 5.0394 126.892 6.48402 125.112 6.48402Z" fill="#0B315E"/>
<path d="M155.567 6.48402C153.786 6.48402 152.325 5.0394 152.325 3.24201C152.325 1.46142 153.769 0 155.567 0C157.347 0 158.809 1.44462 158.809 3.24201C158.809 5.0394 157.347 6.48402 155.567 6.48402Z" fill="#0B315E"/>
<path d="M186.038 6.48402C184.258 6.48402 182.796 5.0394 182.796 3.24201C182.796 1.46142 184.241 0 186.038 0C187.819 0 189.28 1.44462 189.28 3.24201C189.264 5.0394 187.819 6.48402 186.038 6.48402Z" fill="#0B315E"/>
<path d="M216.493 6.48402C214.713 6.48402 213.251 5.0394 213.251 3.24201C213.251 1.46142 214.696 0 216.493 0C218.274 0 219.735 1.44462 219.735 3.24201C219.735 5.0394 218.291 6.48402 216.493 6.48402Z" fill="#0B315E"/>
</svg>
