<svg width="388" height="367" viewBox="0 0 388 367" fill="none" xmlns="http://www.w3.org/2000/svg">
<mask id="mask0_183_364" style="mask-type:alpha" maskUnits="userSpaceOnUse" x="0" y="0" width="388" height="367">
<rect width="388" height="367" fill="#D9D9D9"/>
</mask>
<g mask="url(#mask0_183_364)">
<path d="M157.017 0.0334044C159.235 0.0334044 161.033 -1.76495 161.033 -3.98332C161.033 -6.20169 159.235 -8 157.017 -8C154.798 -8 153 -6.20169 153 -3.98332C153 -1.76495 154.798 0.0334044 157.017 0.0334044Z" fill="white"/>
<path d="M193.143 0.0334044C195.362 0.0334044 197.16 -1.76495 197.16 -3.98332C197.16 -6.20169 195.362 -8 193.143 -8C190.925 -8 189.127 -6.20169 189.127 -3.98332C189.127 -1.76495 190.925 0.0334044 193.143 0.0334044Z" fill="white"/>
<path d="M229.27 0.0334044C231.488 0.0334044 233.287 -1.76495 233.287 -3.98332C233.287 -6.20169 231.488 -8 229.27 -8C227.052 -8 225.253 -6.20169 225.253 -3.98332C225.253 -1.76495 227.052 0.0334044 229.27 0.0334044Z" fill="white"/>
<path d="M269.413 -3.98332C269.413 -1.77293 267.607 0.033404 265.397 0.033404C263.186 0.033404 261.38 -1.77293 261.38 -3.98332C261.38 -6.1937 263.186 -8 265.397 -8C267.607 -8 269.413 -6.1937 269.413 -3.98332Z" fill="white"/>
<path d="M305.54 -3.98332C305.54 -1.77293 303.734 0.033404 301.523 0.033404C299.313 0.033404 297.507 -1.77293 297.507 -3.98332C297.507 -6.1937 299.313 -8 301.523 -8C303.734 -8 305.54 -6.1937 305.54 -3.98332Z" fill="white"/>
<path d="M337.65 0.0334044C339.868 0.0334044 341.667 -1.76495 341.667 -3.98332C341.667 -6.20169 339.868 -8 337.65 -8C335.432 -8 333.633 -6.20169 333.633 -3.98332C333.633 -1.76495 335.432 0.0334044 337.65 0.0334044Z" fill="white"/>
<path d="M373.777 0.0334044C375.995 0.0334044 377.793 -1.76495 377.793 -3.98332C377.793 -6.20169 375.995 -8 373.777 -8C371.558 -8 369.76 -6.20169 369.76 -3.98332C369.76 -1.76495 371.558 0.0334044 373.777 0.0334044Z" fill="white"/>
<path d="M157.017 32.1434C159.235 32.1434 161.033 30.3451 161.033 28.1267C161.033 25.9083 159.235 24.11 157.017 24.11C154.798 24.11 153 25.9083 153 28.1267C153 30.3451 154.798 32.1434 157.017 32.1434Z" fill="white"/>
<path d="M193.143 32.1434C195.362 32.1434 197.16 30.3451 197.16 28.1267C197.16 25.9083 195.362 24.11 193.143 24.11C190.925 24.11 189.127 25.9083 189.127 28.1267C189.127 30.3451 190.925 32.1434 193.143 32.1434Z" fill="white"/>
<path d="M229.27 32.1434C231.488 32.1434 233.287 30.3451 233.287 28.1267C233.287 25.9083 231.488 24.11 229.27 24.11C227.052 24.11 225.253 25.9083 225.253 28.1267C225.253 30.3451 227.052 32.1434 229.27 32.1434Z" fill="white"/>
<path d="M269.413 28.1267C269.413 30.3371 267.607 32.1434 265.397 32.1434C263.186 32.1434 261.38 30.3371 261.38 28.1267C261.38 25.9163 263.186 24.11 265.397 24.11C267.607 24.11 269.413 25.9163 269.413 28.1267Z" fill="white"/>
<path d="M305.54 28.1267C305.54 30.3371 303.734 32.1434 301.523 32.1434C299.313 32.1434 297.507 30.3371 297.507 28.1267C297.507 25.9163 299.313 24.11 301.523 24.11C303.734 24.11 305.54 25.9163 305.54 28.1267Z" fill="white"/>
<path d="M337.65 32.1434C339.868 32.1434 341.667 30.3451 341.667 28.1267C341.667 25.9083 339.868 24.11 337.65 24.11C335.432 24.11 333.633 25.9083 333.633 28.1267C333.633 30.3451 335.432 32.1434 337.65 32.1434Z" fill="white"/>
<path d="M373.777 32.1434C375.995 32.1434 377.793 30.3451 377.793 28.1267C377.793 25.9083 375.995 24.11 373.777 24.11C371.558 24.11 369.76 25.9083 369.76 28.1267C369.76 30.3451 371.558 32.1434 373.777 32.1434Z" fill="white"/>
<path d="M157.017 64.2534C159.235 64.2534 161.033 62.4551 161.033 60.2367C161.033 58.0183 159.235 56.22 157.017 56.22C154.798 56.22 153 58.0183 153 60.2367C153 62.4551 154.798 64.2534 157.017 64.2534Z" fill="white"/>
<path d="M193.143 64.2534C195.362 64.2534 197.16 62.4551 197.16 60.2367C197.16 58.0183 195.362 56.22 193.143 56.22C190.925 56.22 189.127 58.0183 189.127 60.2367C189.127 62.4551 190.925 64.2534 193.143 64.2534Z" fill="white"/>
<path d="M229.27 64.2534C231.488 64.2534 233.287 62.4551 233.287 60.2367C233.287 58.0183 231.488 56.22 229.27 56.22C227.052 56.22 225.253 58.0183 225.253 60.2367C225.253 62.4551 227.052 64.2534 229.27 64.2534Z" fill="white"/>
<path d="M269.413 60.2367C269.413 62.4471 267.607 64.2534 265.397 64.2534C263.186 64.2534 261.38 62.4471 261.38 60.2367C261.38 58.0263 263.186 56.22 265.397 56.22C267.607 56.22 269.413 58.0263 269.413 60.2367Z" fill="white"/>
<path d="M305.54 60.2367C305.54 62.4471 303.734 64.2534 301.523 64.2534C299.313 64.2534 297.507 62.4471 297.507 60.2367C297.507 58.0263 299.313 56.22 301.523 56.22C303.734 56.22 305.54 58.0263 305.54 60.2367Z" fill="white"/>
<path d="M337.65 64.2534C339.868 64.2534 341.667 62.4551 341.667 60.2367C341.667 58.0183 339.868 56.22 337.65 56.22C335.432 56.22 333.633 58.0183 333.633 60.2367C333.633 62.4551 335.432 64.2534 337.65 64.2534Z" fill="white"/>
<path d="M373.777 64.2534C375.995 64.2534 377.793 62.4551 377.793 60.2367C377.793 58.0183 375.995 56.22 373.777 56.22C371.558 56.22 369.76 58.0183 369.76 60.2367C369.76 62.4551 371.558 64.2534 373.777 64.2534Z" fill="white"/>
<path d="M161.033 92.3467C161.033 94.5571 159.227 96.3634 157.017 96.3634C154.806 96.3634 153 94.5571 153 92.3467C153 90.1363 154.806 88.33 157.017 88.33C159.227 88.33 161.033 90.1363 161.033 92.3467Z" fill="white"/>
<path d="M197.16 92.3467C197.16 94.5571 195.354 96.3634 193.143 96.3634C190.933 96.3634 189.127 94.5571 189.127 92.3467C189.127 90.1363 190.933 88.33 193.143 88.33C195.354 88.33 197.16 90.1363 197.16 92.3467Z" fill="white"/>
<path d="M233.287 92.3467C233.287 94.5571 231.48 96.3634 229.27 96.3634C227.06 96.3634 225.253 94.5571 225.253 92.3467C225.253 90.1363 227.06 88.33 229.27 88.33C231.48 88.33 233.287 90.1363 233.287 92.3467Z" fill="white"/>
<path d="M269.413 92.3467C269.413 94.5571 267.607 96.3634 265.397 96.3634C263.186 96.3634 261.38 94.5571 261.38 92.3467C261.38 90.1363 263.186 88.33 265.397 88.33C267.607 88.33 269.413 90.1363 269.413 92.3467Z" fill="white"/>
<path d="M305.54 92.3467C305.54 94.5571 303.734 96.3634 301.523 96.3634C299.313 96.3634 297.507 94.5571 297.507 92.3467C297.507 90.1363 299.313 88.33 301.523 88.33C303.734 88.33 305.54 90.1363 305.54 92.3467Z" fill="white"/>
<path d="M341.667 92.3467C341.667 94.5571 339.86 96.3634 337.65 96.3634C335.44 96.3634 333.633 94.5571 333.633 92.3467C333.633 90.1363 335.44 88.33 337.65 88.33C339.86 88.33 341.667 90.1363 341.667 92.3467Z" fill="white"/>
<path d="M377.793 92.3467C377.793 94.5571 375.987 96.3634 373.777 96.3634C371.566 96.3634 369.76 94.5571 369.76 92.3467C369.76 90.1363 371.566 88.33 373.777 88.33C375.987 88.33 377.793 90.1363 377.793 92.3467Z" fill="white"/>
<path d="M161.033 124.457C161.033 126.667 159.227 128.473 157.017 128.473C154.806 128.473 153 126.667 153 124.457C153 122.246 154.806 120.44 157.017 120.44C159.227 120.44 161.033 122.246 161.033 124.457Z" fill="white"/>
<path d="M197.16 124.457C197.16 126.667 195.354 128.473 193.143 128.473C190.933 128.473 189.127 126.667 189.127 124.457C189.127 122.246 190.933 120.44 193.143 120.44C195.354 120.44 197.16 122.246 197.16 124.457Z" fill="white"/>
<path d="M233.287 124.457C233.287 126.667 231.48 128.473 229.27 128.473C227.06 128.473 225.253 126.667 225.253 124.457C225.253 122.246 227.06 120.44 229.27 120.44C231.48 120.44 233.287 122.246 233.287 124.457Z" fill="white"/>
<path d="M269.413 124.457C269.413 126.667 267.607 128.473 265.397 128.473C263.186 128.473 261.38 126.667 261.38 124.457C261.38 122.246 263.186 120.44 265.397 120.44C267.607 120.44 269.413 122.246 269.413 124.457Z" fill="white"/>
<path d="M305.54 124.457C305.54 126.667 303.734 128.473 301.523 128.473C299.313 128.473 297.507 126.667 297.507 124.457C297.507 122.246 299.313 120.44 301.523 120.44C303.734 120.44 305.54 122.246 305.54 124.457Z" fill="white"/>
<path d="M341.667 124.457C341.667 126.667 339.86 128.473 337.65 128.473C335.44 128.473 333.633 126.667 333.633 124.457C333.633 122.246 335.44 120.44 337.65 120.44C339.86 120.44 341.667 122.246 341.667 124.457Z" fill="white"/>
<path d="M377.793 124.457C377.793 126.667 375.987 128.473 373.777 128.473C371.566 128.473 369.76 126.667 369.76 124.457C369.76 122.246 371.566 120.44 373.777 120.44C375.987 120.44 377.793 122.246 377.793 124.457Z" fill="white"/>
<path d="M161.033 156.567C161.033 158.777 159.227 160.583 157.017 160.583C154.806 160.583 153 158.777 153 156.567C153 154.356 154.806 152.55 157.017 152.55C159.227 152.55 161.033 154.356 161.033 156.567Z" fill="white"/>
<path d="M197.16 156.567C197.16 158.777 195.354 160.583 193.143 160.583C190.933 160.583 189.127 158.777 189.127 156.567C189.127 154.356 190.933 152.55 193.143 152.55C195.354 152.55 197.16 154.356 197.16 156.567Z" fill="white"/>
<path d="M233.287 156.567C233.287 158.777 231.48 160.583 229.27 160.583C227.06 160.583 225.253 158.777 225.253 156.567C225.253 154.356 227.06 152.55 229.27 152.55C231.48 152.55 233.287 154.356 233.287 156.567Z" fill="white"/>
<path d="M269.413 156.567C269.413 158.777 267.607 160.583 265.397 160.583C263.186 160.583 261.38 158.777 261.38 156.567C261.38 154.356 263.186 152.55 265.397 152.55C267.607 152.55 269.413 154.356 269.413 156.567Z" fill="white"/>
<path d="M305.54 156.567C305.54 158.777 303.734 160.583 301.523 160.583C299.313 160.583 297.507 158.777 297.507 156.567C297.507 154.356 299.313 152.55 301.523 152.55C303.734 152.55 305.54 154.356 305.54 156.567Z" fill="white"/>
<path d="M341.667 156.567C341.667 158.777 339.86 160.583 337.65 160.583C335.44 160.583 333.633 158.777 333.633 156.567C333.633 154.356 335.44 152.55 337.65 152.55C339.86 152.55 341.667 154.356 341.667 156.567Z" fill="white"/>
<path d="M377.793 156.567C377.793 158.777 375.987 160.583 373.777 160.583C371.566 160.583 369.76 158.777 369.76 156.567C369.76 154.356 371.566 152.55 373.777 152.55C375.987 152.55 377.793 154.356 377.793 156.567Z" fill="white"/>
<path d="M157.017 192.693C159.235 192.693 161.033 190.895 161.033 188.676C161.033 186.458 159.235 184.66 157.017 184.66C154.798 184.66 153 186.458 153 188.676C153 190.895 154.798 192.693 157.017 192.693Z" fill="white"/>
<path d="M193.143 192.693C195.362 192.693 197.16 190.895 197.16 188.676C197.16 186.458 195.362 184.66 193.143 184.66C190.925 184.66 189.127 186.458 189.127 188.676C189.127 190.895 190.925 192.693 193.143 192.693Z" fill="white"/>
<path d="M229.27 192.693C231.488 192.693 233.287 190.895 233.287 188.676C233.287 186.458 231.488 184.66 229.27 184.66C227.052 184.66 225.253 186.458 225.253 188.676C225.253 190.895 227.052 192.693 229.27 192.693Z" fill="white"/>
<path d="M269.413 188.676C269.413 190.887 267.607 192.693 265.397 192.693C263.186 192.693 261.38 190.887 261.38 188.676C261.38 186.466 263.186 184.66 265.397 184.66C267.607 184.683 269.413 186.466 269.413 188.676Z" fill="white"/>
<path d="M305.54 188.676C305.54 190.887 303.734 192.693 301.523 192.693C299.313 192.693 297.507 190.887 297.507 188.676C297.507 186.466 299.313 184.66 301.523 184.66C303.734 184.683 305.54 186.466 305.54 188.676Z" fill="white"/>
<path d="M337.65 192.693C339.868 192.693 341.667 190.895 341.667 188.676C341.667 186.458 339.868 184.66 337.65 184.66C335.432 184.66 333.633 186.458 333.633 188.676C333.633 190.895 335.432 192.693 337.65 192.693Z" fill="white"/>
<path d="M373.777 192.693C375.995 192.693 377.793 190.895 377.793 188.676C377.793 186.458 375.995 184.66 373.777 184.66C371.558 184.66 369.76 186.458 369.76 188.676C369.76 190.895 371.558 192.693 373.777 192.693Z" fill="white"/>
<path d="M161.033 220.81C161.033 223.02 159.227 224.827 157.017 224.827C154.806 224.827 153 223.02 153 220.81C153 218.6 154.806 216.793 157.017 216.793C159.227 216.793 161.033 218.576 161.033 220.81Z" fill="white"/>
<path d="M197.16 220.81C197.16 223.02 195.354 224.827 193.143 224.827C190.933 224.827 189.127 223.02 189.127 220.81C189.127 218.6 190.933 216.793 193.143 216.793C195.354 216.793 197.16 218.576 197.16 220.81Z" fill="white"/>
<path d="M233.287 220.81C233.287 223.02 231.48 224.827 229.27 224.827C227.06 224.827 225.253 223.02 225.253 220.81C225.253 218.6 227.06 216.793 229.27 216.793C231.48 216.793 233.287 218.576 233.287 220.81Z" fill="white"/>
<path d="M269.413 220.81C269.413 223.02 267.607 224.827 265.397 224.827C263.186 224.827 261.38 223.02 261.38 220.81C261.38 218.6 263.186 216.793 265.397 216.793C267.607 216.793 269.413 218.576 269.413 220.81Z" fill="white"/>
<path d="M305.54 220.81C305.54 223.02 303.734 224.827 301.523 224.827C299.313 224.827 297.507 223.02 297.507 220.81C297.507 218.6 299.313 216.793 301.523 216.793C303.734 216.793 305.54 218.576 305.54 220.81Z" fill="white"/>
<path d="M341.667 220.81C341.667 223.02 339.86 224.827 337.65 224.827C335.44 224.827 333.633 223.02 333.633 220.81C333.633 218.6 335.44 216.793 337.65 216.793C339.86 216.793 341.667 218.576 341.667 220.81Z" fill="white"/>
<path d="M377.793 220.81C377.793 223.02 375.987 224.827 373.777 224.827C371.566 224.827 369.76 223.02 369.76 220.81C369.76 218.6 371.566 216.793 373.777 216.793C375.987 216.793 377.793 218.576 377.793 220.81Z" fill="white"/>
<path d="M161.033 252.92C161.033 255.13 159.227 256.937 157.017 256.937C154.806 256.937 153 255.13 153 252.92C153 250.71 154.806 248.903 157.017 248.903C159.227 248.903 161.033 250.686 161.033 252.92Z" fill="white"/>
<path d="M197.16 252.92C197.16 255.13 195.354 256.937 193.143 256.937C190.933 256.937 189.127 255.13 189.127 252.92C189.127 250.71 190.933 248.903 193.143 248.903C195.354 248.903 197.16 250.686 197.16 252.92Z" fill="white"/>
<path d="M233.287 252.92C233.287 255.13 231.48 256.937 229.27 256.937C227.06 256.937 225.253 255.13 225.253 252.92C225.253 250.71 227.06 248.903 229.27 248.903C231.48 248.903 233.287 250.686 233.287 252.92Z" fill="white"/>
<path d="M269.413 252.92C269.413 255.13 267.607 256.937 265.397 256.937C263.186 256.937 261.38 255.13 261.38 252.92C261.38 250.71 263.186 248.903 265.397 248.903C267.607 248.903 269.413 250.686 269.413 252.92Z" fill="white"/>
<path d="M305.54 252.92C305.54 255.13 303.734 256.937 301.523 256.937C299.313 256.937 297.507 255.13 297.507 252.92C297.507 250.71 299.313 248.903 301.523 248.903C303.734 248.903 305.54 250.686 305.54 252.92Z" fill="white"/>
<path d="M341.667 252.92C341.667 255.13 339.86 256.937 337.65 256.937C335.44 256.937 333.633 255.13 333.633 252.92C333.633 250.71 335.44 248.903 337.65 248.903C339.86 248.903 341.667 250.686 341.667 252.92Z" fill="white"/>
<path d="M377.793 252.92C377.793 255.13 375.987 256.937 373.777 256.937C371.566 256.937 369.76 255.13 369.76 252.92C369.76 250.71 371.566 248.903 373.777 248.903C375.987 248.903 377.793 250.686 377.793 252.92Z" fill="white"/>
<path d="M161.033 285.03C161.033 287.24 159.227 289.047 157.017 289.047C154.806 289.047 153 287.24 153 285.03C153 282.82 154.806 281.013 157.017 281.013C159.227 281.013 161.033 282.82 161.033 285.03Z" fill="white"/>
<path d="M197.16 285.03C197.16 287.24 195.354 289.047 193.143 289.047C190.933 289.047 189.127 287.24 189.127 285.03C189.127 282.82 190.933 281.013 193.143 281.013C195.354 281.013 197.16 282.82 197.16 285.03Z" fill="white"/>
<path d="M233.287 285.03C233.287 287.24 231.48 289.047 229.27 289.047C227.06 289.047 225.253 287.24 225.253 285.03C225.253 282.82 227.06 281.013 229.27 281.013C231.48 281.013 233.287 282.82 233.287 285.03Z" fill="white"/>
<path d="M269.413 285.03C269.413 287.24 267.607 289.047 265.397 289.047C263.186 289.047 261.38 287.24 261.38 285.03C261.38 282.82 263.186 281.013 265.397 281.013C267.607 281.013 269.413 282.82 269.413 285.03Z" fill="white"/>
<path d="M305.54 285.03C305.54 287.24 303.734 289.047 301.523 289.047C299.313 289.047 297.507 287.24 297.507 285.03C297.507 282.82 299.313 281.013 301.523 281.013C303.734 281.013 305.54 282.82 305.54 285.03Z" fill="white"/>
<path d="M341.667 285.03C341.667 287.24 339.86 289.047 337.65 289.047C335.44 289.047 333.633 287.24 333.633 285.03C333.633 282.82 335.44 281.013 337.65 281.013C339.86 281.013 341.667 282.82 341.667 285.03Z" fill="white"/>
<path d="M377.793 285.03C377.793 287.24 375.987 289.047 373.777 289.047C371.566 289.047 369.76 287.24 369.76 285.03C369.76 282.82 371.566 281.013 373.777 281.013C375.987 281.013 377.793 282.82 377.793 285.03Z" fill="white"/>
<path d="M157.017 321.157C159.235 321.157 161.033 319.358 161.033 317.14C161.033 314.922 159.235 313.123 157.017 313.123C154.798 313.123 153 314.922 153 317.14C153 319.358 154.798 321.157 157.017 321.157Z" fill="white"/>
<path d="M193.143 321.157C195.362 321.157 197.16 319.358 197.16 317.14C197.16 314.922 195.362 313.123 193.143 313.123C190.925 313.123 189.127 314.922 189.127 317.14C189.127 319.358 190.925 321.157 193.143 321.157Z" fill="white"/>
<path d="M229.27 321.157C231.488 321.157 233.287 319.358 233.287 317.14C233.287 314.922 231.488 313.123 229.27 313.123C227.052 313.123 225.253 314.922 225.253 317.14C225.253 319.358 227.052 321.157 229.27 321.157Z" fill="white"/>
<path d="M269.413 317.14C269.413 319.35 267.607 321.157 265.397 321.157C263.186 321.157 261.38 319.35 261.38 317.14C261.38 314.93 263.186 313.123 265.397 313.123C267.607 313.123 269.413 314.93 269.413 317.14Z" fill="white"/>
<path d="M305.54 317.14C305.54 319.35 303.734 321.157 301.523 321.157C299.313 321.157 297.507 319.35 297.507 317.14C297.507 314.93 299.313 313.123 301.523 313.123C303.734 313.123 305.54 314.93 305.54 317.14Z" fill="white"/>
<path d="M337.65 321.157C339.868 321.157 341.667 319.358 341.667 317.14C341.667 314.922 339.868 313.123 337.65 313.123C335.432 313.123 333.633 314.922 333.633 317.14C333.633 319.358 335.432 321.157 337.65 321.157Z" fill="white"/>
<path d="M373.777 321.157C375.995 321.157 377.793 319.358 377.793 317.14C377.793 314.922 375.995 313.123 373.777 313.123C371.558 313.123 369.76 314.922 369.76 317.14C369.76 319.358 371.558 321.157 373.777 321.157Z" fill="white"/>
<path d="M161.033 349.25C161.033 351.46 159.227 353.267 157.017 353.267C154.806 353.267 153 351.46 153 349.25C153 347.039 154.806 345.233 157.017 345.233C159.227 345.233 161.033 347.039 161.033 349.25Z" fill="white"/>
<path d="M197.16 349.25C197.16 351.46 195.354 353.267 193.143 353.267C190.933 353.267 189.127 351.46 189.127 349.25C189.127 347.039 190.933 345.233 193.143 345.233C195.354 345.233 197.16 347.039 197.16 349.25Z" fill="white"/>
<path d="M233.287 349.25C233.287 351.46 231.48 353.267 229.27 353.267C227.06 353.267 225.253 351.46 225.253 349.25C225.253 347.039 227.06 345.233 229.27 345.233C231.48 345.233 233.287 347.039 233.287 349.25Z" fill="white"/>
<path d="M269.413 349.25C269.413 351.46 267.607 353.267 265.397 353.267C263.186 353.267 261.38 351.46 261.38 349.25C261.38 347.039 263.186 345.233 265.397 345.233C267.607 345.233 269.413 347.039 269.413 349.25Z" fill="white"/>
<path d="M305.54 349.25C305.54 351.46 303.734 353.267 301.523 353.267C299.313 353.267 297.507 351.46 297.507 349.25C297.507 347.039 299.313 345.233 301.523 345.233C303.734 345.233 305.54 347.039 305.54 349.25Z" fill="white"/>
<path d="M341.667 349.25C341.667 351.46 339.86 353.267 337.65 353.267C335.44 353.267 333.633 351.46 333.633 349.25C333.633 347.039 335.44 345.233 337.65 345.233C339.86 345.233 341.667 347.039 341.667 349.25Z" fill="white"/>
<path d="M377.793 349.25C377.793 351.46 375.987 353.267 373.777 353.267C371.566 353.267 369.76 351.46 369.76 349.25C369.76 347.039 371.566 345.233 373.777 345.233C375.987 345.233 377.793 347.039 377.793 349.25Z" fill="white"/>
<path d="M159.025 30.2967C144.925 34.3667 130.325 25.0967 120.655 14.0567C110.985 3.01669 103.685 -10.3733 91.8545 -19.0633C66.7245 -37.5033 26.8945 -25.8133 11.7445 1.42669C-3.40547 28.6767 4.75454 65.2067 26.8145 87.2367C48.8645 109.267 82.0645 117.747 113.065 114.477C140.305 111.607 167.015 99.9567 185.645 79.8867C204.275 59.8167 214.015 31.0467 208.705 4.17669C205.595 -11.5633 188.815 -32.0733 181.005 -11.8833C174.955 3.80669 180.965 23.9667 159.025 30.2967Z" fill="#00BB7E"/>
</g>
</svg>
