<svg width="585" height="507" viewBox="0 0 585 507" fill="none" xmlns="http://www.w3.org/2000/svg">
<path d="M501.418 33.91C476.178 64.73 462.198 103.02 448.948 140.59C435.698 178.16 422.358 216.57 398.048 248.14C373.748 279.71 336.028 303.81 296.278 301.15C218.418 295.93 167.338 210.03 94.6085 187.27C71.1985 179.94 43.8185 180.88 24.2985 195.73C-3.01154 216.5 -6.20153 258.72 9.23847 289.36C24.6785 320 54.2285 340.95 84.3685 357.34C107.518 369.93 131.708 380.6 156.608 389.22C187.988 400.07 221.998 408.53 245.508 431.98C275.308 461.71 269.198 484.98 252.838 506.62H584.618V0H538.888C524.858 9.43 512.148 20.81 501.418 33.91Z" fill="#05BD81"/>
</svg>
