<svg width="395" height="363" viewBox="0 0 395 363" fill="none" xmlns="http://www.w3.org/2000/svg">
<path d="M24.412 21.9052C44.215 36.6064 67.1119 44.3754 88.7055 55.6431C99.2798 61.1628 109.653 67.4106 118.797 75.2121C128.862 83.796 137.604 93.9445 146.048 104.169C154.503 114.405 163.107 124.651 171.213 135.169C178.629 144.796 183.789 156.053 191.185 165.734C205.966 185.064 227.687 191.225 250.022 196.266C260.501 198.624 270.704 201.243 279.244 208.273C287.35 214.945 293.241 223.767 298.125 233.068C308.636 253.072 314.432 275.227 324.392 295.492C335.252 317.603 350.478 337.444 370.885 350.983C378.429 355.992 386.651 359.947 395 363L395 3.05176e-05L3.05176e-05 1.32516e-05C7.60757 8.01887 15.48 15.2663 24.412 21.9052Z" fill="url(#paint0_linear_170_49)"/>
<path d="M304.59 192.1C302.83 193.86 299.98 193.86 298.23 192.1C296.47 190.34 296.47 187.49 298.23 185.74C299.99 183.98 302.84 183.98 304.59 185.74C306.35 187.5 306.35 190.34 304.59 192.1ZM349.14 182.2C343.09 176.15 333.27 176.15 327.22 182.2C321.17 188.25 321.17 198.07 327.22 204.12C333.27 210.17 343.09 210.17 349.14 204.12C355.19 198.07 355.2 188.26 349.14 182.2ZM394.76 293.83C385.09 287.98 375.31 283.46 370.83 267C364.83 244.93 375.34 222.64 374.05 200.61C369.83 128.84 298.23 187.91 264 158.3C236.29 134.34 252.41 94.99 215.41 78.22C192.54 67.85 167.84 66.88 145.64 53.4C125.32 41.06 106.38 24.32 103 -1.27532e-05L128.72 -1.1629e-05C128.7 0.349988 128.69 0.709991 128.69 1.04999C128.66 8.90999 133.13 15.89 138.11 21.62C146.05 30.76 155.64 38.64 165.56 45.54C170.56 49.02 175.5 52.21 181.38 53.98C184.04 54.78 197.8 58.01 201.62 56.62C205.4 55.24 207.82 51.2 206.89 47.24C205 39.17 194.45 40.31 188.48 37.74C178.9 33.62 171.71 24.98 168.15 15.32C166.24 10.14 164.8 4.83998 162.44 0.00998435L394.76 0.00999451L394.76 244.06C391.78 234.91 389.67 225.33 388.95 215.82C388.77 213.37 385.36 213.27 384.75 215.22C383.02 217.64 382.93 220.38 382.23 223.24C381.74 225.24 378.02 244.33 377.63 251.16C377.14 259.62 378.44 269.85 384.29 276.38C386.41 278.74 388.99 280.88 392.34 280.76C393.16 280.73 393.97 280.57 394.76 280.34L394.76 293.83ZM228.48 67.26C234.28 65.42 236.33 59.33 233.01 54.32C231.58 52.16 229.34 50.25 226.68 50.11C226.44 49.97 226.18 49.85 225.89 49.77C219.95 47.98 215.87 54.34 216.34 59.62C216.89 65.71 222.77 69.07 228.48 67.26Z" fill="url(#paint1_linear_170_49)"/>
<defs>
<linearGradient id="paint0_linear_170_49" x1="197.498" y1="366.598" x2="197.498" y2="-1.3897" gradientUnits="userSpaceOnUse">
<stop stop-color="#03C988"/>
<stop offset="1" stop-color="#046A81"/>
</linearGradient>
<linearGradient id="paint1_linear_170_49" x1="392.985" y1="2.8141" x2="247.11" y2="148.689" gradientUnits="userSpaceOnUse">
<stop stop-color="#03C988"/>
<stop offset="1" stop-color="#03A5C9"/>
</linearGradient>
</defs>
</svg>
