<svg width="230" height="67" viewBox="0 0 230 67" fill="none" xmlns="http://www.w3.org/2000/svg">
<path d="M19.7737 16.4771H1V35.2508H19.7737V16.4771Z" stroke="#8BD2BD" stroke-width="2" stroke-miterlimit="10"/>
<path d="M54.5043 16.4771H35.7306V35.2508H54.5043V16.4771Z" stroke="#8BD2BD" stroke-width="2" stroke-miterlimit="10"/>
<path d="M89.2195 16.4771H70.4458V35.2508H89.2195V16.4771Z" stroke="#8BD2BD" stroke-width="2" stroke-miterlimit="10"/>
<path d="M123.95 16.4771H105.176V35.2508H123.95V16.4771Z" stroke="#8BD2BD" stroke-width="2" stroke-miterlimit="10"/>
<path d="M158.665 16.4771H139.891V35.2508H158.665V16.4771Z" stroke="#8BD2BD" stroke-width="2" stroke-miterlimit="10"/>
<path d="M193.38 16.4771H174.607V35.2508H193.38V16.4771Z" stroke="#8BD2BD" stroke-width="2" stroke-miterlimit="10"/>
<path d="M228.111 16.4771H209.337V35.2508H228.111V16.4771Z" stroke="#8BD2BD" stroke-width="2" stroke-miterlimit="10"/>
<path d="M19.7737 47.1063H1V65.88H19.7737V47.1063Z" stroke="#8BD2BD" stroke-width="2" stroke-miterlimit="10"/>
<path d="M54.5043 47.1063H35.7306V65.88H54.5043V47.1063Z" stroke="#8BD2BD" stroke-width="2" stroke-miterlimit="10"/>
<path d="M89.2195 47.1063H70.4458V65.88H89.2195V47.1063Z" stroke="#8BD2BD" stroke-width="2" stroke-miterlimit="10"/>
<path d="M123.95 47.1063H105.176V65.88H123.95V47.1063Z" stroke="#8BD2BD" stroke-width="2" stroke-miterlimit="10"/>
<path d="M158.665 47.1063H139.891V65.88H158.665V47.1063Z" stroke="#8BD2BD" stroke-width="2" stroke-miterlimit="10"/>
<path d="M193.38 47.1063H174.607V65.88H193.38V47.1063Z" stroke="#8BD2BD" stroke-width="2" stroke-miterlimit="10"/>
<path d="M228.111 47.1063H209.337V65.88H228.111V47.1063Z" stroke="#8BD2BD" stroke-width="2" stroke-miterlimit="10"/>
<path d="M1 1H19.7737" stroke="#8BD2BD" stroke-width="2" stroke-miterlimit="10" stroke-linecap="square"/>
<path d="M35.7306 1H54.4888" stroke="#8BD2BD" stroke-width="2" stroke-miterlimit="10" stroke-linecap="square"/>
</svg>
