<svg width="250" height="250" viewBox="0 0 250 250" fill="none" xmlns="http://www.w3.org/2000/svg">
<rect width="250" height="250" fill="#E9E9E9"/>
<path d="M114.2 94.9C114.2 92.1 115.067 89.7667 116.8 87.9C118.533 86.0333 120.9 85.1 123.9 85.1C126.9 85.1 129.267 86.0333 131 87.9C132.733 89.7667 133.6 92.1 133.6 94.9C133.6 97.7 132.733 100.033 131 101.9C129.267 103.767 126.9 104.7 123.9 104.7C120.9 104.7 118.533 103.767 116.8 101.9C115.067 100.033 114.2 97.7 114.2 94.9Z" fill="#00337C"/>
<path d="M148.2 94.9C148.2 92.1 149.067 89.7667 150.8 87.9C152.533 86.0333 154.9 85.1 157.9 85.1C160.9 85.1 163.267 86.0333 165 87.9C166.733 89.7667 167.6 92.1 167.6 94.9C167.6 97.7 166.733 100.033 165 101.9C163.267 103.767 160.9 104.7 157.9 104.7C154.9 104.7 152.533 103.767 150.8 101.9C149.067 100.033 148.2 97.7 148.2 94.9Z" fill="#00337C"/>
<path d="M81.2 94.9C81.2 92.1 82.0667 89.7667 83.8 87.9C85.5333 86.0333 87.9 85.1 90.9 85.1C93.9 85.1 96.2667 86.0333 98 87.9C99.7333 89.7667 100.6 92.1 100.6 94.9C100.6 97.7 99.7333 100.033 98 101.9C96.2667 103.767 93.9 104.7 90.9 104.7C87.9 104.7 85.5333 103.767 83.8 101.9C82.0667 100.033 81.2 97.7 81.2 94.9Z" fill="#00337C"/>
</svg>
