<svg width="250" height="250" viewBox="0 0 250 250" fill="none" xmlns="http://www.w3.org/2000/svg">
<rect width="250" height="250" fill="#E9E9E9"/>
<g clip-path="url(#clip0_207_70)">
<path fill-rule="evenodd" clip-rule="evenodd" d="M86.6268 34H163.382C165.371 34 167.009 35.6235 167.009 37.6145V135.385C167.009 137.376 165.38 139 163.382 139H86.6268C84.6376 139 83 137.376 83 135.385V37.6145C83 35.6235 84.6291 34 86.6268 34ZM137.9 49.4663H143.936V54.3625H137.9V49.4663ZM148.549 49.4663H154.585V54.3625H148.549V49.4663ZM91.5483 72.5461H101.597C102.455 72.5461 103.166 73.2468 103.166 74.1099V82.5608C103.166 83.4153 102.463 84.1245 101.597 84.1245H91.5483C90.6909 84.1245 89.9793 83.4238 89.9793 82.5608V74.1099C89.9879 73.2468 90.6909 72.5461 91.5483 72.5461ZM149.355 120.56H159.395C160.252 120.56 160.964 121.261 160.964 122.124V130.575C160.964 131.429 160.261 132.138 159.395 132.138H149.355C148.497 132.138 147.786 131.438 147.786 130.575V122.124C147.786 121.261 148.497 120.56 149.355 120.56ZM130.089 120.56H140.129C140.986 120.56 141.689 121.261 141.689 122.124V130.575C141.689 131.429 140.986 132.138 140.129 132.138H130.089C129.231 132.138 128.52 131.438 128.52 130.575V122.124C128.52 121.261 129.223 120.56 130.089 120.56ZM110.823 120.56H120.872C121.729 120.56 122.441 121.261 122.441 122.124V130.575C122.441 131.429 121.738 132.138 120.872 132.138H110.823C109.965 132.138 109.254 131.438 109.254 130.575V122.124C109.254 121.261 109.957 120.56 110.823 120.56ZM91.5483 120.56H101.597C102.455 120.56 103.166 121.261 103.166 122.124V130.575C103.166 131.429 102.463 132.138 101.597 132.138H91.5483C90.6909 132.138 89.9793 131.438 89.9793 130.575V122.124C89.9879 121.261 90.6909 120.56 91.5483 120.56ZM149.355 104.555H159.395C160.252 104.555 160.964 105.256 160.964 106.119V114.57C160.964 115.433 160.261 116.134 159.395 116.134H149.355C148.497 116.134 147.786 115.433 147.786 114.57V106.119C147.786 105.256 148.497 104.555 149.355 104.555ZM130.089 104.555H140.129C140.986 104.555 141.689 105.256 141.689 106.119V114.57C141.689 115.433 140.986 116.134 140.129 116.134H130.089C129.231 116.134 128.52 115.433 128.52 114.57V106.119C128.52 105.256 129.223 104.555 130.089 104.555ZM110.823 104.555H120.872C121.729 104.555 122.441 105.256 122.441 106.119V114.57C122.441 115.433 121.738 116.134 120.872 116.134H110.823C109.965 116.134 109.254 115.433 109.254 114.57V106.119C109.254 105.256 109.957 104.555 110.823 104.555ZM91.5483 104.555H101.597C102.455 104.555 103.166 105.256 103.166 106.119V114.57C103.166 115.433 102.463 116.134 101.597 116.134H91.5483C90.6909 116.134 89.9793 115.433 89.9793 114.57V106.119C89.9879 105.256 90.6909 104.555 91.5483 104.555ZM149.355 88.5508H159.395C160.252 88.5508 160.964 89.2515 160.964 90.1145V98.5654C160.964 99.4199 160.261 100.129 159.395 100.129H149.355C148.497 100.129 147.786 99.4285 147.786 98.5654V90.1145C147.786 89.2515 148.497 88.5508 149.355 88.5508ZM130.089 88.5508H140.129C140.986 88.5508 141.689 89.2515 141.689 90.1145V98.5654C141.689 99.4199 140.986 100.129 140.129 100.129H130.089C129.231 100.129 128.52 99.4285 128.52 98.5654V90.1145C128.52 89.2515 129.223 88.5508 130.089 88.5508ZM110.823 88.5508H120.872C121.729 88.5508 122.441 89.2515 122.441 90.1145V98.5654C122.441 99.4199 121.738 100.129 120.872 100.129H110.823C109.965 100.129 109.254 99.4285 109.254 98.5654V90.1145C109.254 89.2515 109.957 88.5508 110.823 88.5508ZM91.5483 88.5508H101.597C102.455 88.5508 103.166 89.2515 103.166 90.1145V98.5654C103.166 99.4199 102.463 100.129 101.597 100.129H91.5483C90.6909 100.129 89.9793 99.4285 89.9793 98.5654V90.1145C89.9879 89.2515 90.6909 88.5508 91.5483 88.5508ZM149.355 72.5461H159.395C160.252 72.5461 160.964 73.2468 160.964 74.1099V82.5608C160.964 83.4153 160.261 84.1245 159.395 84.1245H149.355C148.497 84.1245 147.786 83.4238 147.786 82.5608V74.1099C147.786 73.2468 148.497 72.5461 149.355 72.5461ZM130.089 72.5461H140.129C140.986 72.5461 141.689 73.2468 141.689 74.1099V82.5608C141.689 83.4153 140.986 84.1245 140.129 84.1245H130.089C129.231 84.1245 128.52 83.4238 128.52 82.5608V74.1099C128.52 73.2468 129.223 72.5461 130.089 72.5461ZM110.823 72.5461H120.872C121.729 72.5461 122.441 73.2468 122.441 74.1099V82.5608C122.441 83.4153 121.738 84.1245 120.872 84.1245H110.823C109.965 84.1245 109.254 83.4238 109.254 82.5608V74.1099C109.254 73.2468 109.957 72.5461 110.823 72.5461ZM90.7338 41.3743H158.537C159.198 41.3743 159.729 41.9126 159.729 42.562V58.8999C159.729 59.5579 159.198 60.0876 158.537 60.0876H90.7338C90.0736 60.0876 89.542 59.5493 89.542 58.8999V42.562C89.542 41.9126 90.0822 41.3743 90.7338 41.3743Z" fill="#00337C"/>
</g>
<defs>
<clipPath id="clip0_207_70">
<rect width="84" height="105" fill="white" transform="translate(83 34)"/>
</clipPath>
</defs>
</svg>
