<svg width="250" height="250" viewBox="0 0 250 250" fill="none" xmlns="http://www.w3.org/2000/svg">
<rect width="250" height="250" fill="#E9E9E9"/>
<g clip-path="url(#clip0_207_80)">
<path fill-rule="evenodd" clip-rule="evenodd" d="M125.818 109.486C128.959 107.751 134.479 105.188 142.342 101.838C142.737 101.642 143.759 101.197 145.39 100.522C148.205 97.6682 150.506 95.532 152.369 94.0964C154.206 92.678 155.536 91.9602 156.352 91.9602C157.365 91.9602 158.103 92.2849 158.601 92.9087C159.073 93.5325 159.322 94.498 159.322 95.814C159.322 96.9334 159.15 98.4971 158.807 100.531C160.884 103.163 161.923 105.102 161.923 106.367C161.923 107.435 161.622 108.255 161.056 108.802C160.463 109.366 159.596 109.64 158.438 109.64C157.871 109.64 156.978 109.341 155.811 108.725C154.626 108.127 153.115 107.239 151.278 106.068C146.823 106.888 140.445 109.392 132.127 113.57C133.191 114.194 133.955 114.656 134.453 114.963C137.346 116.604 140.934 118.808 145.192 121.568C145.707 121.919 146.926 122.636 148.806 123.756C157.596 124.773 162 127.003 162 130.429C162 132.66 159.622 134.181 154.901 134.95C152.678 137.65 150.841 139.017 149.381 139.017C147.647 139.017 145.965 136.736 144.308 132.19C144.162 131.694 143.913 131.002 143.518 130.079C136.737 124.491 130.651 120.278 125.234 117.424C118.624 121.175 112.486 125.619 106.821 130.805C106.057 136.291 104.417 139.026 101.893 139.026C100.314 139.026 98.477 137.488 96.3996 134.386C91.4722 134.386 89 133.019 89 130.318C89 128.336 89.9185 126.892 91.7469 125.969C93.5754 125.08 97.464 124.209 103.353 123.32C107.731 120.09 112.95 116.843 118.993 113.587C110.873 109.52 104.271 107.008 99.1465 106.085C97.9361 107.153 96.8202 107.948 95.8073 108.495C94.7943 109.016 93.8501 109.289 92.9917 109.289C91.7298 109.289 90.7855 109.016 90.1417 108.495C89.4721 107.948 89.1545 107.179 89.1545 106.162C89.1545 105.248 90.219 103.359 92.3478 100.548C91.85 98.5654 91.601 97.0786 91.601 96.0532C91.601 94.592 91.9015 93.5239 92.468 92.7976C93.0603 92.0884 93.893 91.738 95.0089 91.738C96.1163 91.738 97.5584 92.4558 99.3354 93.9255C101.147 95.3696 103.293 97.5742 105.791 100.531C111.37 102.513 118.023 105.512 125.818 109.486ZM134.462 85.7822L133.003 89.4993C131.174 90.123 128.668 90.4478 125.526 90.4478C123.998 90.4478 122.581 90.3709 121.319 90.2C120.058 90.0291 118.967 89.7983 118.058 89.5078L116.598 85.7908L106.477 80.9116L105.542 74.802C105.396 73.6399 104.349 71.3584 102.417 67.9575C100.906 65.4539 100.168 61.4036 100.168 55.8237C100.168 49.321 102.52 44.0488 107.198 40.0327C111.894 36.0081 118.006 34 125.552 34C133.071 34 139.183 36.0081 143.887 40.0327C148.566 44.0488 150.918 49.321 150.918 55.8237C150.918 61.4121 149.355 66.8467 146.265 72.1787C145.999 72.7769 145.75 73.6484 145.553 74.8105L144.617 80.9202L134.462 85.7822ZM139.243 87.4656L137.432 94.6433L133.003 98.5142C132.239 100.001 131.226 101.146 129.929 101.889C128.65 102.633 127.14 103.009 125.38 103.009C121.886 103.009 119.371 101.522 117.757 98.5142L113.345 94.6433L111.525 87.4656L114.143 86.7991C114.444 87.5425 114.641 88.0894 114.787 88.491C115.903 91.0459 117.139 92.7378 118.444 93.5581C119.783 94.3784 121.98 94.7971 125.105 94.7971C128.573 94.7971 130.994 94.4041 132.307 93.635C133.646 92.8574 134.883 91.157 135.973 88.491C136.119 88.0894 136.342 87.551 136.642 86.7991L139.243 87.4656ZM125.603 73.563C124.736 75.0071 123.843 76.2974 122.916 77.4082C121.749 78.7241 121.174 79.741 121.174 80.4587C121.174 81.2278 121.397 81.8259 121.869 82.2275C122.315 82.595 122.976 82.7915 123.878 82.7915C124.393 82.7915 124.985 82.595 125.603 82.2275C126.221 82.595 126.813 82.7915 127.337 82.7915C129.148 82.7915 130.032 82.0054 130.032 80.3818C130.032 79.7068 129.466 78.7156 128.307 77.3997C127.311 76.2461 126.419 74.9814 125.603 73.563ZM108.924 67.6841C108.924 72.324 110.924 74.6567 114.933 74.6567C118.993 74.6567 121.028 72.1531 121.028 67.1628C121.028 63.0442 119.07 60.9849 115.156 60.9849C113.087 60.9849 111.525 61.5232 110.478 62.6426C109.448 63.762 108.924 65.4539 108.924 67.6841ZM130.402 67.6841C130.402 72.324 132.427 74.6567 136.496 74.6567C140.548 74.6567 142.574 72.1531 142.574 67.1628C142.574 65.0779 142.085 63.5398 141.097 62.523C140.11 61.5061 138.625 60.9849 136.642 60.9849C132.488 60.9849 130.402 63.2151 130.402 67.6841Z" fill="#00337C"/>
</g>
<defs>
<clipPath id="clip0_207_80">
<rect width="73" height="105" fill="white" transform="translate(89 34)"/>
</clipPath>
</defs>
</svg>
