<svg width="250" height="250" viewBox="0 0 250 250" fill="none" xmlns="http://www.w3.org/2000/svg">
<rect width="250" height="250" fill="#E9E9E9"/>
<path d="M127.619 127.424L139.783 105.538L139.84 113.542L165.439 113.484C170.013 112.998 174.024 111.133 176.928 107.626C167.659 126.643 164.989 140.098 145.758 140.107H139.84L139.783 149L127.619 127.424ZM98.3196 140.3C84.6335 136.126 78.248 119.214 71.9884 107.298C74.8574 109.914 80.2265 113.659 83.345 113.659C89.326 113.673 95.3071 113.684 101.288 113.697H119.408L119.35 140.223L119.292 140.3L98.3196 140.3ZM71 100.368L79.747 82.4748L71.2173 77.7756H96.7775L109.133 100.28L100.754 95.2473C98.0663 100.94 95.3786 106.632 92.6909 112.324C89.5978 112.27 86.5046 112.216 83.4115 112.162C77.38 110.751 73.184 105.991 71 100.368ZM156.418 112.054L145.122 91.1736L167.945 77.3116L178.99 99.5063C179.325 104.818 170.774 112.209 165.467 112.152L156.418 112.054ZM89.6068 63.1981L101.267 45.6705C112.577 41.4458 119.128 50.5663 123.263 56.3154L112.276 77.4662L89.6068 63.1981ZM133.788 72.6328C131.442 67.0873 128.309 60.744 124.39 55.2287C120.882 50.2909 116.643 45.9828 113.432 44.058L142.925 44C148.221 44.4769 150.795 47.5739 153.604 51.8107L157.844 59.2928L164.398 55.0974L152.061 77.1376L125.46 77.1955L133.788 72.6328Z" fill="#00337C"/>
</svg>
